<?xml version="1.0" encoding="UTF-8" standalone="no"?>
<!-- Created with Inkscape (http://www.inkscape.org/) -->

<svg
   xmlns:dc="http://purl.org/dc/elements/1.1/"
   xmlns:cc="http://creativecommons.org/ns#"
   xmlns:rdf="http://www.w3.org/1999/02/22-rdf-syntax-ns#"
   xmlns:svg="http://www.w3.org/2000/svg"
   xmlns="http://www.w3.org/2000/svg"
   xmlns:sodipodi="http://sodipodi.sourceforge.net/DTD/sodipodi-0.dtd"
   xmlns:inkscape="http://www.inkscape.org/namespaces/inkscape"
   version="1.1"
   width="178.92535"
   height="174.41893"
   id="svg14739"
   sodipodi:docname="Eurofins_Scientific_Logo_Small.svg"
   inkscape:version="0.92.3 (2405546, 2018-03-11)">
  <sodipodi:namedview
     pagecolor="#ffffff"
     bordercolor="#666666"
     borderopacity="1"
     objecttolerance="10"
     gridtolerance="10"
     guidetolerance="10"
     inkscape:pageopacity="0"
     inkscape:pageshadow="2"
     inkscape:window-width="1414"
     inkscape:window-height="824"
     id="namedview40"
     showgrid="false"
     fit-margin-top="0"
     fit-margin-left="0"
     fit-margin-right="0"
     fit-margin-bottom="0"
     inkscape:zoom="0.38301587"
     inkscape:cx="442.91338"
     inkscape:cy="87.209513"
     inkscape:window-x="53"
     inkscape:window-y="27"
     inkscape:window-maximized="0"
     inkscape:current-layer="svg14739" />
  <defs
     id="defs14741">
    <clipPath
       id="clipPath8000">
      <path
         d="m 668.034,119.403 h 44.64 v 176.76 h -44.64 z"
         id="path8002"
         inkscape:connector-curvature="0" />
    </clipPath>
  </defs>
  <metadata
     id="metadata14744">
    <rdf:RDF>
      <cc:Work
         rdf:about="">
        <dc:format>image/svg+xml</dc:format>
        <dc:type
           rdf:resource="http://purl.org/dc/dcmitype/StillImage" />
        <dc:title></dc:title>
      </cc:Work>
    </rdf:RDF>
  </metadata>
  <g
     transform="matrix(0,5.4856137,5.4856137,0,52.884059,105.45708)"
     id="g8004"
     style="fill:#959ecc;fill-opacity:1">
    <path
       d="m 0,0 c -1.928,0 -3.481,1.553 -3.481,3.477 0,1.928 1.553,3.482 3.481,3.482 1.924,0 3.478,-1.554 3.478,-3.482 C 3.478,1.553 1.924,0 0,0"
       id="path8006"
       style="fill:#959ecc;fill-opacity:1;fill-rule:nonzero;stroke:none"
       inkscape:connector-curvature="0" />
  </g>
  <g
     transform="matrix(0,5.4856137,5.4856137,0,41.69615,155.34545)"
     id="g8008"
     style="fill:#084897;fill-opacity:1">
    <path
       d="m 0,0 c -3.803,0 -4.124,-0.318 -4.124,-4.12 0,-1.928 -1.554,-3.481 -3.478,-3.481 -1.927,0 -3.481,1.553 -3.481,3.481 0,1.928 1.554,3.481 3.481,3.481 3.799,0 4.121,0.321 4.121,4.12 0,1.928 1.553,3.481 3.481,3.481 1.924,0 3.477,-1.553 3.477,-3.481 C 3.477,1.553 1.924,0 0,0"
       id="path8010"
       style="fill:#084897;fill-opacity:1;fill-rule:nonzero;stroke:none"
       inkscape:connector-curvature="0" />
  </g>
  <g
     transform="matrix(0,5.4856137,5.4856137,0,130.68049,112.56314)"
     id="g8012"
     style="fill:#576eaf;fill-opacity:1">
    <path
       d="m 0,0 c -3.802,0 -4.124,-0.318 -4.124,-4.121 0,-1.928 -1.553,-3.477 -3.481,-3.477 -1.924,0 -3.478,1.549 -3.478,3.477 0,1.928 1.554,3.481 3.478,3.481 3.803,0 4.124,0.322 4.124,4.121 0,1.928 1.554,3.481 3.481,3.481 1.925,0 3.478,-1.553 3.478,-3.481 C 3.478,1.553 1.925,0 0,0"
       id="path8014"
       style="fill:#576eaf;fill-opacity:1;fill-rule:nonzero;stroke:none"
       inkscape:connector-curvature="0" />
  </g>
  <g
     transform="matrix(0,5.4856137,5.4856137,0,140.75098,60.791571)"
     id="g8016"
     style="fill:#f5822b;fill-opacity:1">
    <path
       d="m 0,0 c -3.802,0 -4.123,-0.321 -4.123,-4.12 0,-1.928 -1.55,-3.481 -3.478,-3.481 -1.929,0 -3.481,1.553 -3.481,3.481 0,1.924 1.552,3.478 3.481,3.478 3.799,0 4.12,0.321 4.12,4.123 0,1.928 1.553,3.478 3.481,3.478 1.928,0 3.478,-1.55 3.478,-3.478 C 3.478,1.553 1.928,0 0,0"
       id="path8018"
       style="fill:#f5822b;fill-opacity:1;fill-rule:nonzero;stroke:none"
       inkscape:connector-curvature="0" />
  </g>
  <g
     transform="matrix(0,5.4856137,5.4856137,0,91.569704,151.3788)"
     id="g8020"
     style="fill:#f5822b;fill-opacity:1">
    <path
       d="m 0,0 c -1.928,0 -3.478,1.553 -3.478,3.481 0,1.925 1.55,3.478 3.478,3.478 1.928,0 3.481,-1.553 3.481,-3.478 C 3.481,1.553 1.928,0 0,0"
       id="path8022"
       style="fill:#f5822b;fill-opacity:1;fill-rule:nonzero;stroke:none"
       inkscape:connector-curvature="0" />
  </g>
  <g
     transform="matrix(0,5.4856137,5.4856137,0,8.1713707,62.745546)"
     id="g8024">
    <path
       d="m 0,0 c -1.928,0 -3.481,1.553 -3.481,3.478 0,1.928 1.553,3.481 3.481,3.481 1.928,0 3.481,-1.553 3.481,-3.481 C 3.481,1.553 1.928,0 0,0"
       id="path8026"
       style="fill:#f8a464;fill-opacity:1;fill-rule:nonzero;stroke:none"
       inkscape:connector-curvature="0" />
  </g>
  <g
     transform="matrix(0,5.4856137,5.4856137,0,44.343508,23.811403)"
     id="g8028"
     style="fill:#084897;fill-opacity:1">
    <path
       d="m 0,0 c -1.927,0 -3.481,1.553 -3.481,3.477 0,1.928 1.554,3.481 3.481,3.481 1.928,0 3.481,-1.553 3.481,-3.481 C 3.481,1.553 1.928,0 0,0"
       id="path8030"
       style="fill:#084897;fill-opacity:1;fill-rule:nonzero;stroke:none"
       inkscape:connector-curvature="0" />
  </g>
</svg>
