<?xml version="1.0" encoding="UTF-8" standalone="no"?>
<!-- Created with Inkscape (http://www.inkscape.org/) -->

<svg
   xmlns:dc="http://purl.org/dc/elements/1.1/"
   xmlns:cc="http://creativecommons.org/ns#"
   xmlns:rdf="http://www.w3.org/1999/02/22-rdf-syntax-ns#"
   xmlns:svg="http://www.w3.org/2000/svg"
   xmlns="http://www.w3.org/2000/svg"
   version="1.1"
   width="892.91339"
   height="181.41731"
   id="svg14739">
  <defs
     id="defs14741">
    <clipPath
       id="clipPath8000">
      <path
         d="m 668.034,119.403 44.64,0 0,176.76 -44.64,0 0,-176.76 z"
         id="path8002" />
    </clipPath>
  </defs>
  <metadata
     id="metadata14744">
    <rdf:RDF>
      <cc:Work
         rdf:about="">
        <dc:format>image/svg+xml</dc:format>
        <dc:type
           rdf:resource="http://purl.org/dc/dcmitype/StillImage" />
        <dc:title></dc:title>
      </cc:Work>
    </rdf:RDF>
  </metadata>
  <g
     transform="translate(62.489465,-488.82272)"
     id="layer1">
    <g
       transform="matrix(0,5.4856137,5.4856137,0,-729.73029,-3218.8411)"
       id="g7996">
      <g
         clip-path="url(#clipPath8000)"
         id="g7998">
        <g
           id="g15844">
          <g
             transform="translate(695.7508,131.9211)"
             id="g8004"
             style="fill:#959ecc;fill-opacity:1">
            <path
               d="m 0,0 c -1.928,0 -3.481,1.553 -3.481,3.477 0,1.928 1.553,3.482 3.481,3.482 1.924,0 3.478,-1.554 3.478,-3.482 C 3.478,1.553 1.924,0 0,0"
               id="path8006"
               style="fill:#959ecc;fill-opacity:1;fill-rule:nonzero;stroke:none" />
          </g>
          <g
             transform="translate(704.8452,129.8816)"
             id="g8008"
             style="fill:#084897;fill-opacity:1">
            <path
               d="m 0,0 c -3.803,0 -4.124,-0.318 -4.124,-4.12 0,-1.928 -1.554,-3.481 -3.478,-3.481 -1.927,0 -3.481,1.553 -3.481,3.481 0,1.928 1.554,3.481 3.481,3.481 3.799,0 4.121,0.321 4.121,4.12 0,1.928 1.553,3.481 3.481,3.481 1.924,0 3.477,-1.553 3.477,-3.481 C 3.477,1.553 1.924,0 0,0"
               id="path8010"
               style="fill:#084897;fill-opacity:1;fill-rule:nonzero;stroke:none" />
          </g>
          <g
             transform="translate(697.0462,146.103)"
             id="g8012"
             style="fill:#576eaf;fill-opacity:1">
            <path
               d="m 0,0 c -3.802,0 -4.124,-0.318 -4.124,-4.121 0,-1.928 -1.553,-3.477 -3.481,-3.477 -1.924,0 -3.478,1.549 -3.478,3.477 0,1.928 1.554,3.481 3.478,3.481 3.803,0 4.124,0.322 4.124,4.121 0,1.928 1.554,3.481 3.481,3.481 1.925,0 3.478,-1.553 3.478,-3.481 C 3.478,1.553 1.925,0 0,0"
               id="path8014"
               style="fill:#576eaf;fill-opacity:1;fill-rule:nonzero;stroke:none" />
          </g>
          <g
             transform="translate(687.6085,147.9388)"
             id="g8016"
             style="fill:#f5822b;fill-opacity:1">
            <path
               d="m 0,0 c -3.802,0 -4.123,-0.321 -4.123,-4.12 0,-1.928 -1.55,-3.481 -3.478,-3.481 -1.929,0 -3.481,1.553 -3.481,3.481 0,1.924 1.552,3.478 3.481,3.478 3.799,0 4.12,0.321 4.12,4.123 0,1.928 1.553,3.478 3.481,3.478 1.928,0 3.478,-1.55 3.478,-3.478 C 3.478,1.553 1.928,0 0,0"
               id="path8018"
               style="fill:#f5822b;fill-opacity:1;fill-rule:nonzero;stroke:none" />
          </g>
          <g
             transform="translate(704.1221,138.9733)"
             id="g8020"
             style="fill:#f5822b;fill-opacity:1">
            <path
               d="m 0,0 c -1.928,0 -3.478,1.553 -3.478,3.481 0,1.925 1.55,3.478 3.478,3.478 1.928,0 3.481,-1.553 3.481,-3.478 C 3.481,1.553 1.928,0 0,0"
               id="path8022"
               style="fill:#f5822b;fill-opacity:1;fill-rule:nonzero;stroke:none" />
          </g>
          <g
             transform="translate(687.9647,123.7702)"
             id="g8024">
            <path
               d="m 0,0 c -1.928,0 -3.481,1.553 -3.481,3.478 0,1.928 1.553,3.481 3.481,3.481 1.928,0 3.481,-1.553 3.481,-3.481 C 3.481,1.553 1.928,0 0,0"
               id="path8026"
               style="fill:#f8a464;fill-opacity:1;fill-rule:nonzero;stroke:none" />
          </g>
          <g
             transform="translate(680.8672,130.3642)"
             id="g8028"
             style="fill:#084897;fill-opacity:1">
            <path
               d="m 0,0 c -1.927,0 -3.481,1.553 -3.481,3.477 0,1.928 1.554,3.481 3.481,3.481 1.928,0 3.481,-1.553 3.481,-3.481 C 3.481,1.553 1.928,0 0,0"
               id="path8030"
               style="fill:#084897;fill-opacity:1;fill-rule:nonzero;stroke:none" />
          </g>
          <g
             transform="translate(691.3837,173.9142)"
             id="g8032"
             style="fill:#084897;fill-opacity:1">
            <path
               d="m 0,0 c -1.301,0 -3.762,-0.458 -3.762,-3.094 0,-2.743 2.813,-3.271 3.762,-3.341 L 0,0 z m 11.322,3.164 c 0.598,-1.477 0.949,-2.777 0.949,-4.887 0,-4.642 -2.742,-8.369 -9.493,-8.369 -4.642,0 -8.017,1.864 -8.017,7.138 0,5.415 3.622,6.435 6.856,6.435 l 0,-10.021 c 3.306,0 8.791,1.476 8.791,6.505 0,1.09 -0.211,2.145 -0.704,3.199 l 1.618,0"
               id="path8034"
               style="fill:#084897;fill-opacity:1;fill-rule:nonzero;stroke:none" />
          </g>
          <g
             transform="translate(699.295,192.1626)"
             id="g8036"
             style="fill:#084897;fill-opacity:1">
            <path
               d="m 0,0 0,-0.071 c 1.231,-0.562 4.36,-2.144 4.36,-5.836 0,-2.954 -2.461,-4.22 -4.888,-4.22 l -12.235,0 0,3.552 10.477,0 c 2.11,0 4.009,0.316 4.009,2.11 0,3.515 -5.485,4.5 -7.56,4.5 l -6.926,0 0,3.551 16.736,0 L 3.973,0 0,0"
               id="path8038"
               style="fill:#084897;fill-opacity:1;fill-rule:nonzero;stroke:none" />
          </g>
          <g
             transform="translate(686.5315,201.6552)"
             id="g8040"
             style="fill:#084897;fill-opacity:1">
            <path
               d="m 0,0 0,3.552 4.254,0 0,0.07 c -2.25,1.125 -4.395,2.356 -4.641,5.415 l 3.692,0 C 3.411,5.626 4.571,3.552 9.072,3.552 l 7.665,0 L 16.737,0 0,0"
               id="path8042"
               style="fill:#084897;fill-opacity:1;fill-rule:nonzero;stroke:none" />
          </g>
          <g
             transform="translate(702.1782,220.2621)"
             id="g8044"
             style="fill:#084897;fill-opacity:1">
            <path
               d="m 0,0 c 0,3.165 -4.219,3.552 -7.278,3.552 -3.059,0 -7.279,-0.387 -7.279,-3.552 0,-3.129 4.22,-3.516 7.279,-3.516 C -4.219,-3.516 0,-3.129 0,0 m -7.278,-7.384 c -5.661,0 -8.755,2.462 -8.755,7.384 0,4.923 3.094,7.419 8.755,7.419 5.661,0 8.755,-2.496 8.755,-7.419 0,-4.922 -3.094,-7.384 -8.755,-7.384"
               id="path8046"
               style="fill:#084897;fill-opacity:1;fill-rule:nonzero;stroke:none" />
          </g>
          <g
             transform="translate(688.3597,233.2717)"
             id="g8048"
             style="fill:#084897;fill-opacity:1">
            <path
               d="m 0,0 0,-2.918 -1.828,0 0,2.918 -1.583,0 c -3.094,0 -6.329,0.738 -6.329,6.364 0,1.442 0.211,2.707 0.387,3.551 l 2.426,0 C -7.243,9.177 -7.7,8.228 -7.7,6.786 c 0,-2.883 2.074,-3.235 3.867,-3.235 l 2.005,0 0,4.747 1.828,0 0,-4.747 14.908,0 L 14.908,0 0,0"
               id="path8050"
               style="fill:#084897;fill-opacity:1;fill-rule:nonzero;stroke:none" />
          </g>
          <path
             d="m 686.531,249.305 16.737,0 0,-3.552 -16.737,0 0,3.552 z m -7.524,0.141 3.516,0 0,-3.833 -3.516,0 0,3.833 z"
             id="path8052"
             style="fill:#084897;fill-opacity:1;fill-rule:nonzero;stroke:none" />
          <g
             transform="translate(686.5315,255.0708)"
             id="g8054"
             style="fill:#084897;fill-opacity:1">
            <path
               d="m 0,0 0,3.552 3.973,0 0,0.07 c -1.23,0.563 -4.36,2.18 -4.36,5.872 0,2.953 2.461,4.219 4.888,4.219 l 12.236,0 0,-3.551 -10.478,0 c -2.11,0 -4.009,-0.317 -4.009,-2.11 0,-3.516 5.485,-4.5 7.56,-4.5 l 6.927,0 L 16.737,0 0,0"
               id="path8056"
               style="fill:#084897;fill-opacity:1;fill-rule:nonzero;stroke:none" />
          </g>
          <g
             transform="translate(689.8367,282.7074)"
             id="g8058"
             style="fill:#084897;fill-opacity:1">
            <path
               d="m 0,0 c -0.809,-1.196 -1.653,-2.532 -1.653,-4.219 0,-1.125 0.493,-2.391 1.758,-2.391 3.024,0 3.306,7.665 8.65,7.665 3.586,0 5.063,-2.813 5.063,-6.364 0,-2.145 -0.457,-3.622 -0.738,-4.466 l -3.27,0 c 0.703,1.02 1.758,2.672 1.758,4.642 0,2.039 -1.055,2.883 -2.11,2.883 -2.953,0 -3.551,-7.56 -8.333,-7.56 -2.531,0 -4.817,1.688 -4.817,5.872 0,1.793 0.492,3.34 0.668,3.938 L 0,0"
               id="path8060"
               style="fill:#084897;fill-opacity:1;fill-rule:nonzero;stroke:none" />
          </g>
        </g>
      </g>
    </g>
  </g>
</svg>
